<?xml version="1.0" encoding="UTF-8"?>
<svg xmlns="http://www.w3.org/2000/svg" viewBox="0 0 760 260" aria-label="The Kiddle wordmark">
  <g fill="none" stroke-linecap="round" stroke-linejoin="round">
    <path d="M24 52h38" stroke="#F29D98" stroke-width="6"/>
    <path d="M43 38l-6 52" stroke="#F29D98" stroke-width="6"/>
    <path d="M72 62c0-10 7-18 17-18 9 0 15 6 15 14 0 10-8 15-20 15-9 0-15 6-15 14 0 8 7 14 16 14 8 0 14-4 18-10" stroke="#F29D98" stroke-width="6"/>

    <path d="M52 126l8 122" stroke="#F4C85A" stroke-width="16"/>
    <path d="M58 184c29-7 52-21 76-55" stroke="#F4C85A" stroke-width="16"/>
    <path d="M60 184c30 13 49 30 67 50" stroke="#F4C85A" stroke-width="16"/>

    <rect x="190" y="142" width="28" height="92" fill="#F29D98"/>
    <rect x="190" y="122" width="28" height="20" rx="8" fill="#89CEC5"/>
    <polygon points="190,234 218,234 204,260" fill="#F29D98"/>

    <path d="M336 110l1 140" stroke="#F4C85A" stroke-width="16"/>
    <path d="M336 184c-44 0-77 22-77 45s29 42 73 42h4" stroke="#F4C85A" stroke-width="16"/>

    <path d="M464 110l1 140" stroke="#F4C85A" stroke-width="16"/>
    <path d="M464 184c-44 0-77 22-77 45s29 42 73 42h4" stroke="#F4C85A" stroke-width="16"/>

    <path d="M562 114l-2 130" stroke="#F4C85A" stroke-width="16"/>

    <path d="M626 194c0-23 21-42 46-42 24 0 44 14 46 34 1 8-5 12-14 13l-76-1" stroke="#F4C85A" stroke-width="16"/>
    <path d="M628 198c4 24 22 40 45 40 16 0 28-7 38-19" stroke="#F4C85A" stroke-width="16"/>
  </g>
</svg>
